G04 ================== begin FILE IDENTIFICATION RECORD ==================*
G04 Layout Name:  asdfasdf.brd*
G04 Film Name:    BOTTOM*
G04 File Format:  Gerber RS274X*
G04 File Origin:  Cadence Allegro 16.6-S034*
G04 Origin Date:  Fri Jul 19 12:46:19 2019*
G04 *
G04 Layer:  ETCH/BOTTOM*
G04 Layer:  PIN/BOTTOM*
G04 Layer:  VIA CLASS/BOTTOM*
G04 *
G04 Offset:    (0.000 0.000)*
G04 Mirror:    No*
G04 Mode:      Positive*
G04 Rotation:  0*
G04 FullContactRelief:  No*
G04 UndefLineWidth:     0.000*
G04 ================== end FILE IDENTIFICATION RECORD ====================*
%FSLAX25Y25*MOMM*%
%IR0*IPPOS*OFA0.00000B0.00000*MIA0B0*SFA1.00000B1.00000*%
%ADD11C,1.321*%
%ADD10R,1.321X1.321*%
%ADD12C,1.575*%
%ADD13R,1.575X1.575*%
%ADD14O,1.2X1.9*%
%ADD15C,.61*%
%ADD16C,.254*%
%ADD17C,.381*%
%ADD18C,.382*%
%ADD20C,1.58*%
%ADD23C,1.834*%
%ADD27C,2.088*%
%ADD19O,1.404X2.104*%
%ADD22R,1.832X1.832*%
%ADD21R,1.832X1.834*%
%ADD29R,2.086X2.088*%
%ADD25R,1.58X1.578*%
%ADD24R,1.578X1.58*%
%ADD28R,2.088X2.088*%
%ADD26R,1.578X1.578*%
G75*
%LPD*%
G75*
G36*
G01X300100Y300100D02*
Y4199900D01*
X10699900D01*
Y300100D01*
X300100D01*
G37*
%LPC*%
G75*
G36*
G01X6913300Y3230500D02*
X6743400Y3060700D01*
X6743100Y3059100D01*
G02X6678600Y3123600I-55300J9200D01*
G01X6680200Y3123900D01*
X6966500Y3410200D01*
X7031900D01*
G02Y3320800I80100J-44700D01*
G01X7003500D01*
X6993000Y3310200D01*
G03X6997800Y3293100I7199J-7203D01*
G02X7023300Y3197500I-12801J-54615D01*
G01Y2835000D01*
G02X6946700I-38300J-41000D01*
G01Y3197500D01*
G02X6930400Y3225700I38324J40963D01*
G03X6913300Y3230500I-9897J-2399D01*
G37*
G36*
G01X3063900Y2819200D02*
X3022800Y2778100D01*
Y2432800D01*
G02X2946200I-38300J-83300D01*
G01Y2809900D01*
X3032100Y2895800D01*
X4492600D01*
X5232800Y3636000D01*
G03X5229200Y3644700I-3588J3610D01*
G01X5222900D01*
X4524400Y2946200D01*
X2873400D01*
X2705300Y2778100D01*
Y2432800D01*
G02X2628700I-38300J-83300D01*
G01Y2809900D01*
X2841600Y3022800D01*
X4492600D01*
X5169300Y3699500D01*
G03X5165700Y3708200I-3588J3610D01*
G01X5159400D01*
X4524400Y3073200D01*
X2682900D01*
X2387800Y2778100D01*
Y2432800D01*
G02X2311200I-38300J-83300D01*
G01Y2809900D01*
X2651100Y3149800D01*
X4492600D01*
X5097100Y3754300D01*
G03X5089900Y3771700I-7197J7212D01*
G01X5032400D01*
X4460900Y3200200D01*
X2492400D01*
X2070300Y2778100D01*
Y2432800D01*
G02X1993700I-38300J-83300D01*
G01Y2809900D01*
X2460600Y3276800D01*
X2602000D01*
G03X2608500Y3294900I45J10201D01*
G02X2725500I58500J70600D01*
G03X2732000Y3276800I6455J-7899D01*
G01X2919500D01*
G03X2926000Y3294900I45J10201D01*
G02X3043000I58500J70600D01*
G03X3049500Y3276800I6455J-7899D01*
G01X4429100D01*
X5000600Y3848300D01*
X5538500D01*
X5543600Y3853400D01*
X5616000D01*
G02X5653800Y3753900I35506J-43441D01*
G03X5644100Y3744200I440J-10140D01*
G02X5590300Y3690400I-56100J2300D01*
G03X5580600Y3680700I440J-10140D01*
G02X5483500Y3644700I-56071J2286D01*
G01X5462100D01*
G03X5452100Y3632200I-49J-10211D01*
G02X5356500Y3581200I-54633J-12691D01*
G01X5286400D01*
X4524400Y2819200D01*
X3063900D01*
G37*
G36*
G01X6632200Y2250600D02*
Y2067400D01*
X6448800D01*
Y2250600D01*
X6502200D01*
Y2270100D01*
X6397600Y2374700D01*
X5819500D01*
G02Y2451300I-41000J38300D01*
G01X6429400D01*
X6578800Y2301900D01*
Y2250600D01*
X6632200D01*
G37*
G36*
G01X9001100Y2057200D02*
X8477400Y2581000D01*
X8474400Y2580000D01*
G02X8407200Y2750300I-28784J87051D01*
G01Y3159100D01*
X8239100Y3327200D01*
X8211300D01*
G02Y3403800I-83300J38300D01*
G01X8270900D01*
X8483800Y3190900D01*
Y2750300D01*
G02X8532500Y2638100I-38311J-83298D01*
G01X8531500Y2635100D01*
X9032900Y2133800D01*
X9992200D01*
Y2199800D01*
X10200800D01*
Y1991200D01*
X9992200D01*
Y2057200D01*
X9001100D01*
G37*
G36*
G01X1060700Y1669500D02*
X1161500Y1568700D01*
X3348900D01*
G02X3518000Y1501800I80125J-44634D01*
G01X3517300Y1499000D01*
X3574500Y1441700D01*
X4373000D01*
G03X4380200Y1459100I-8J10193D01*
G02X4509800I64800J64900D01*
G03X4517000Y1441700I7208J-7207D01*
G01X5669900D01*
X5796900Y1314700D01*
X6015900D01*
G02Y1225300I80100J-44700D01*
G01X5759900D01*
X5632900Y1352300D01*
X5152000D01*
G03X5144800Y1334900I8J-10193D01*
G02X5015200I-64800J-64900D01*
G03X5008000Y1352300I-7208J7207D01*
G01X3537500D01*
X3454000Y1435700D01*
X3451200Y1435000D01*
G02X3348900Y1479300I-22206J88990D01*
G01X1124500D01*
X971300Y1632500D01*
Y1686400D01*
X924400D01*
Y1869600D01*
X1107600D01*
Y1686400D01*
X1060700D01*
Y1669500D01*
G37*
G36*
G01X6134300Y1988300D02*
G02X6057700I-38300J-83300D01*
G01Y2016100D01*
X5889600Y2184200D01*
X5163300D01*
G02Y2260800I-83300J38300D01*
G01X5921400D01*
X5989400Y2192700D01*
G03X6006600Y2202200I7239J7215D01*
G02X6075700Y2133100I89400J20300D01*
G03X6066200Y2115900I-2285J-9961D01*
G01X6134300Y2047900D01*
Y1988300D01*
G37*
G54D20*
X762000Y1778000D03*
Y2476500D03*
Y3175000D03*
X6794500Y2159000D03*
G54D23*
X2032000Y3365500D03*
X2349500D03*
X3619500Y889000D03*
X3746500Y2603500D03*
Y1968500D03*
X4318000Y952500D03*
Y1905000D03*
Y2667000D03*
X4572000Y3810000D03*
X5080000Y1587500D03*
Y1905000D03*
X6413500Y1206500D03*
X6096000Y1587500D03*
X7175500D03*
X7747000Y952500D03*
X7937500Y1587500D03*
X8763000Y1651000D03*
X8445500D03*
X8763000Y2667000D03*
X8699500Y3175000D03*
X8382000Y3746500D03*
X9398000Y1651000D03*
X9080500D03*
X9398000Y2667000D03*
X9080500D03*
X9398000Y3746500D03*
X10096500Y1079500D03*
X10477500Y3937000D03*
G54D27*
X4064000Y3810000D03*
X3810000D03*
X4318000D03*
X10096500Y1333500D03*
Y1587500D03*
Y1841500D03*
X10477500Y3429000D03*
Y3175000D03*
Y3683000D03*
G54D19*
X6100500Y444500D03*
Y814500D03*
X5075500Y444500D03*
Y814500D03*
G54D22*
X1016000Y3175000D03*
X9017000D03*
G54D21*
X1016000Y2476500D03*
G54D29*
X10477500Y2921000D03*
G54D25*
X4064000Y952500D03*
X8001000D03*
G54D24*
X3365500Y889000D03*
G54D28*
X3556000Y3810000D03*
G54D26*
X3492500Y2603500D03*
Y1968500D03*
X6667500Y1206500D03*
%LPD*%
G75*
G54D10*
X1016000Y1778000D03*
Y2476500D03*
Y3175000D03*
X3365500Y889000D03*
X4064000Y952500D03*
X3492500Y2603500D03*
Y1968500D03*
X6667500Y1206500D03*
X6540500Y2159000D03*
X8001000Y952500D03*
X9017000Y3175000D03*
G54D11*
X762000Y1778000D03*
Y2476500D03*
Y3175000D03*
X2032000Y2349500D03*
X2667000D03*
X2349500D03*
X2032000Y3365500D03*
X2667000D03*
X2349500D03*
X3429000Y1524000D03*
X2984500Y2349500D03*
Y3365500D03*
X3619500Y889000D03*
X3746500Y2603500D03*
Y1968500D03*
X4318000Y952500D03*
X4445000Y1524000D03*
X4318000Y1905000D03*
Y2667000D03*
X5080000Y1587500D03*
Y1905000D03*
Y1270000D03*
Y2222500D03*
X6413500Y1206500D03*
X6096000Y1587500D03*
Y1905000D03*
Y1270000D03*
Y2222500D03*
X7175500Y1587500D03*
X6794500Y2159000D03*
X7112000Y3365500D03*
X7747000Y952500D03*
X7937500Y1587500D03*
X8763000Y1651000D03*
X8445500D03*
X8763000Y2667000D03*
X8445500D03*
X8699500Y3175000D03*
X8128000Y3365500D03*
X8382000Y3746500D03*
X9398000Y1651000D03*
X9080500D03*
X9398000Y2667000D03*
X9080500D03*
X9398000Y3746500D03*
G54D12*
X4064000Y3810000D03*
X3810000D03*
X4572000D03*
X4318000D03*
X10096500Y1079500D03*
Y1333500D03*
Y1587500D03*
Y1841500D03*
X10477500Y3429000D03*
Y3175000D03*
Y3937000D03*
Y3683000D03*
G54D13*
X3556000Y3810000D03*
X10096500Y2095500D03*
X10477500Y2921000D03*
G54D14*
X5075500Y814500D03*
Y444500D03*
X6100500Y814500D03*
Y444500D03*
G54D15*
X5397500Y3619500D03*
X5524500Y3683000D03*
X5588000Y3746500D03*
X5651500Y3810000D03*
X5778500Y2413000D03*
X6238300Y3863300D03*
X6985000Y2794000D03*
Y3238500D03*
X6687800Y3068300D03*
G54D16*
G01X5588000Y3746500D02*
X5558100D01*
X5553000Y3751600D01*
X5496000D01*
X5490900Y3746500D01*
X5143500D01*
X4508500Y3111500D01*
X2667000D01*
X2349500Y2794000D01*
Y2349500D01*
G01X5651500Y3810000D02*
X5621600D01*
X5616500Y3815100D01*
X5559500D01*
X5554400Y3810000D01*
X5016500D01*
X4445000Y3238500D01*
X2476500D01*
X2032000Y2794000D01*
Y2349500D01*
G01X5397500Y3619500D02*
X5270500D01*
X4508500Y2857500D01*
X3048000D01*
X2984500Y2794000D01*
Y2349500D01*
G01X5524500Y3683000D02*
X5431100D01*
X5426000Y3688100D01*
X5369000D01*
X5363900Y3683000D01*
X5207000D01*
X4508500Y2984500D01*
X2857500D01*
X2667000Y2794000D01*
Y2349500D01*
G01X6096000Y1905000D02*
Y2032000D01*
X5905500Y2222500D01*
X5080000D01*
G01X6540500Y2159000D02*
Y2286000D01*
X6413500Y2413000D01*
X5778500D01*
G01X6985000Y3238500D02*
Y2794000D01*
G01X10096500Y2095500D02*
X9017000D01*
X8445500Y2667000D01*
G01D02*
Y3175000D01*
X8255000Y3365500D01*
X8128000D01*
G54D17*
G01X762000Y1693900D02*
Y1778000D01*
G01D02*
Y1862100D01*
G01X677900Y1778000D02*
X762000D01*
G01D02*
X846100D01*
G01X762000Y2392400D02*
Y2476500D01*
G01D02*
Y2560600D01*
G01X677900Y2476500D02*
X762000D01*
G01D02*
X846100D01*
G01X762000Y3090900D02*
Y3175000D01*
G01D02*
Y3259100D01*
G01X677900Y3175000D02*
X762000D01*
G01D02*
X846100D01*
G01X3365500Y804900D02*
Y889000D01*
G01D02*
Y973100D01*
G01X3281400Y889000D02*
X3365500D01*
G01D02*
X3449600D01*
G01X4064000Y952500D02*
X4224500Y1113000D01*
G01X4064000Y868400D02*
Y952500D01*
G01D02*
Y1036600D01*
G01X3979900Y952500D02*
X4064000D01*
G01D02*
X4148100D01*
G01X3492500Y1884400D02*
Y1968500D01*
G01D02*
Y2052600D01*
G01X3408400Y1968500D02*
X3492500D01*
G01D02*
X3576600D01*
G01X3492500Y2519400D02*
Y2603500D01*
G01D02*
Y2687600D01*
G01X3408400Y2603500D02*
X3492500D01*
G01D02*
X3576600D01*
G01X4224500Y1113000D02*
X4452000D01*
X4515600Y1049400D01*
X6667500D01*
G01X4572000Y3713200D02*
Y3810000D01*
G01D02*
Y3906800D01*
G01X4475200Y3810000D02*
X4572000D01*
G01D02*
X4668800D01*
G01X6583400Y1206500D02*
X6667500D01*
G01D02*
X6751600D01*
G01X6794500Y2159000D02*
Y2243100D01*
G01X6710400Y2159000D02*
X6794500D01*
G01D02*
X6878600D01*
G01X7916900Y952500D02*
X8001000D01*
G01Y868400D02*
Y952500D01*
G01D02*
Y1036600D01*
G01X10096500Y982700D02*
Y1079500D01*
G01D02*
Y1176300D01*
G01X10477500Y3840200D02*
Y3937000D01*
G01D02*
Y4033800D01*
G01X10380700Y3937000D02*
X10477500D01*
G54D18*
G01X3429000Y1524000D02*
X1143000D01*
X1016000Y1651000D01*
Y1778000D01*
G01X6096000Y1270000D02*
X5778400D01*
X5651400Y1397000D01*
X3556000D01*
X3429000Y1524000D01*
G01X6238300Y3863300D02*
X6158400Y3943200D01*
X4705200D01*
G01D02*
X4572000Y3810000D01*
G01X10403800Y3863300D02*
X6238300D01*
G01X6667500Y1206500D02*
Y1049400D01*
G01D02*
Y889000D01*
X6858000Y698500D01*
X7747000D01*
G01X6667500Y1206500D02*
Y1651000D01*
G01D02*
X6794500Y1778000D01*
G01D02*
Y2159000D01*
G01X7112000Y3365500D02*
X6985000D01*
X6687800Y3068300D01*
G01X7747000Y698500D02*
X8001000Y952500D01*
G01X9779000D02*
X8001000D01*
G01X10096500Y1079500D02*
X9906000D01*
G01X10096500D02*
X10414000D01*
G01X9906000D02*
X9779000Y952500D01*
G01X10414000Y1079500D02*
X10604500Y1270000D01*
Y3907900D01*
X10575400Y3937000D01*
G01X10477500D02*
X10403800Y3863300D01*
G01X10575400Y3937000D02*
X10477500D01*
M02*
