G04 ================== begin FILE IDENTIFICATION RECORD ==================*
G04 Layout Name:  asdfasdf.brd*
G04 Film Name:    SilkB*
G04 File Format:  Gerber RS274X*
G04 File Origin:  Cadence Allegro 16.6-S034*
G04 Origin Date:  Fri Jul 19 12:46:19 2019*
G04 *
G04 Layer:  MANUFACTURING/AUTOSILK_BOTTOM*
G04 *
G04 Offset:    (0.000 0.000)*
G04 Mirror:    No*
G04 Mode:      Positive*
G04 Rotation:  0*
G04 FullContactRelief:  No*
G04 UndefLineWidth:     0.000*
G04 ================== end FILE IDENTIFICATION RECORD ====================*
%FSLAX25Y25*MOMM*%
%IR0*IPPOS*OFA0.00000B0.00000*MIA0B0*SFA1.00000B1.00000*%
%ADD10C,.2*%
G75*
%LPD*%
G75*
G54D10*
G01X8039300Y350000D02*
Y470000D01*
X8012700D01*
X8002000Y464000D01*
X7994000Y456000D01*
X7987300Y444000D01*
X7982000Y430000D01*
X7980700Y410000D01*
X7982000Y390000D01*
X7987300Y376000D01*
X7994000Y364000D01*
X8002000Y356000D01*
X8012700Y350000D01*
X8039300D01*
G01X7888100D02*
X7941500D01*
Y470000D01*
X7888100D01*
G01X7909500Y412000D02*
X7941500D01*
G01X7847600Y366000D02*
X7836900Y356000D01*
X7824900Y350000D01*
X7814300D01*
X7803600Y356000D01*
X7795600Y366000D01*
X7791600Y380000D01*
X7794300Y394000D01*
X7800900Y406000D01*
X7812900Y414000D01*
X7828900Y418000D01*
X7838300Y426000D01*
X7842300Y440000D01*
X7839600Y454000D01*
X7832900Y464000D01*
X7823600Y470000D01*
X7814300D01*
X7804900Y466000D01*
X7796900Y456000D01*
G01X7740400Y470000D02*
X7708400D01*
G01X7724400D02*
Y350000D01*
G01X7740400D02*
X7708400D01*
G01X7621200Y410000D02*
X7594500D01*
Y374000D01*
X7602500Y362000D01*
X7611900Y354000D01*
X7625200Y350000D01*
X7638500Y354000D01*
X7647900Y362000D01*
X7655900Y374000D01*
X7661200Y388000D01*
X7663900Y404000D01*
Y418000D01*
X7661200Y430000D01*
X7655900Y444000D01*
X7647900Y456000D01*
X7639900Y464000D01*
X7629200Y470000D01*
X7619900D01*
X7609200Y466000D01*
X7601200Y458000D01*
G01X7564700Y350000D02*
Y470000D01*
X7503300Y350000D01*
Y470000D01*
G01X7412100Y350000D02*
X7465500D01*
Y470000D01*
X7412100D01*
G01X7433500Y412000D02*
X7465500D01*
G01X7372900Y350000D02*
Y470000D01*
X7346300D01*
X7335600Y464000D01*
X7327600Y456000D01*
X7320900Y444000D01*
X7315600Y430000D01*
X7314300Y410000D01*
X7315600Y390000D01*
X7320900Y376000D01*
X7327600Y364000D01*
X7335600Y356000D01*
X7346300Y350000D01*
X7372900D01*
G01X7142500Y414000D02*
X7137200Y420000D01*
X7133200Y430000D01*
X7130500Y444000D01*
X7133200Y456000D01*
X7138500Y464000D01*
X7147900Y470000D01*
X7183900D01*
Y350000D01*
X7139900D01*
X7130500Y358000D01*
X7125200Y370000D01*
X7122500Y384000D01*
X7125200Y398000D01*
X7133200Y410000D01*
X7142500Y414000D01*
X7183900D01*
G01X7058000Y350000D02*
Y404000D01*
X7084700Y470000D01*
G01X7031300D02*
X7058000Y404000D01*
G01X6838300Y460000D02*
X6846300Y466000D01*
X6855600Y470000D01*
X6866300D01*
X6878300Y464000D01*
X6887600Y454000D01*
X6894300Y442000D01*
X6899600Y422000D01*
X6900900Y404000D01*
X6898300Y386000D01*
X6894300Y374000D01*
X6886300Y362000D01*
X6876900Y354000D01*
X6867600Y350000D01*
X6858300D01*
X6848900Y354000D01*
X6840900Y360000D01*
X6834300Y368000D01*
G01X6800400Y350000D02*
Y470000D01*
G01X6744400D02*
Y350000D01*
G01Y410000D02*
X6800400D01*
G01X6710500Y350000D02*
X6677200Y470000D01*
X6643900Y350000D01*
G01X6655900Y392000D02*
X6698500D01*
G01X6612700Y350000D02*
Y470000D01*
X6551300Y350000D01*
Y470000D01*
G01X6478800Y410000D02*
X6452100D01*
Y374000D01*
X6460100Y362000D01*
X6469500Y354000D01*
X6482800Y350000D01*
X6496100Y354000D01*
X6505500Y362000D01*
X6513500Y374000D01*
X6518800Y388000D01*
X6521500Y404000D01*
Y418000D01*
X6518800Y430000D01*
X6513500Y444000D01*
X6505500Y456000D01*
X6497500Y464000D01*
X6486800Y470000D01*
X6477500D01*
X6466800Y466000D01*
X6458800Y458000D01*
G01X6420900Y470000D02*
Y384000D01*
X6415600Y366000D01*
X6404900Y354000D01*
X6391600Y350000D01*
X6378300Y354000D01*
X6367600Y366000D01*
X6362300Y384000D01*
Y470000D01*
M02*
