G04 ================== begin FILE IDENTIFICATION RECORD ==================*
G04 Layout Name:  asdfasdf.brd*
G04 Film Name:    SilkT*
G04 File Format:  Gerber RS274X*
G04 File Origin:  Cadence Allegro 16.6-S034*
G04 Origin Date:  Fri Jul 19 12:46:19 2019*
G04 *
G04 Layer:  MANUFACTURING/AUTOSILK_TOP*
G04 *
G04 Offset:    (0.000 0.000)*
G04 Mirror:    No*
G04 Mode:      Positive*
G04 Rotation:  0*
G04 FullContactRelief:  No*
G04 UndefLineWidth:     0.000*
G04 ================== end FILE IDENTIFICATION RECORD ====================*
%FSLAX25Y25*MOMM*%
%IR0*IPPOS*OFA0.00000B0.00000*MIA0B0*SFA1.00000B1.00000*%
%ADD10C,.2*%
%ADD11C,.203*%
%ADD12C,.254*%
G75*
%LPD*%
G75*
G54D10*
G01X1219300Y1560000D02*
X1211300Y1566000D01*
X1202000Y1570000D01*
X1191300D01*
X1179300Y1564000D01*
X1170000Y1554000D01*
X1163300Y1542000D01*
X1158000Y1522000D01*
X1156700Y1504000D01*
X1159300Y1486000D01*
X1163300Y1474000D01*
X1171300Y1462000D01*
X1180700Y1454000D01*
X1190000Y1450000D01*
X1199300D01*
X1208700Y1454000D01*
X1216700Y1460000D01*
X1223300Y1468000D01*
G01X1259900Y1500000D02*
X1269200Y1514000D01*
X1277200Y1522000D01*
X1287900Y1526000D01*
X1297200Y1522000D01*
X1303900Y1514000D01*
X1309200Y1502000D01*
X1310500Y1488000D01*
X1309200Y1476000D01*
X1303900Y1464000D01*
X1295900Y1454000D01*
X1286500Y1450000D01*
X1275900Y1454000D01*
X1266500Y1466000D01*
X1261200Y1484000D01*
X1259900Y1504000D01*
X1262500Y1530000D01*
X1266500Y1544000D01*
X1273200Y1558000D01*
X1282500Y1568000D01*
X1291900Y1570000D01*
X1301200Y1566000D01*
X1307900Y1556000D01*
G01X1269300Y2260000D02*
X1261300Y2266000D01*
X1252000Y2270000D01*
X1241300D01*
X1229300Y2264000D01*
X1220000Y2254000D01*
X1213300Y2242000D01*
X1208000Y2222000D01*
X1206700Y2204000D01*
X1209300Y2186000D01*
X1213300Y2174000D01*
X1221300Y2162000D01*
X1230700Y2154000D01*
X1240000Y2150000D01*
X1249300D01*
X1258700Y2154000D01*
X1266700Y2160000D01*
X1273300Y2168000D01*
G01X1312500Y2164000D02*
X1321900Y2154000D01*
X1332500Y2150000D01*
X1343200Y2154000D01*
X1352500Y2166000D01*
X1359200Y2184000D01*
X1361900Y2202000D01*
Y2224000D01*
X1359200Y2242000D01*
X1352500Y2258000D01*
X1344500Y2266000D01*
X1335200Y2270000D01*
X1324500Y2266000D01*
X1316500Y2258000D01*
X1311200Y2246000D01*
X1308500Y2230000D01*
X1311200Y2216000D01*
X1317900Y2202000D01*
X1325900Y2194000D01*
X1335200Y2192000D01*
X1345900Y2196000D01*
X1353900Y2206000D01*
X1361900Y2224000D01*
G01X1269300Y3010000D02*
X1261300Y3016000D01*
X1252000Y3020000D01*
X1241300D01*
X1229300Y3014000D01*
X1220000Y3004000D01*
X1213300Y2992000D01*
X1208000Y2972000D01*
X1206700Y2954000D01*
X1209300Y2936000D01*
X1213300Y2924000D01*
X1221300Y2912000D01*
X1230700Y2904000D01*
X1240000Y2900000D01*
X1249300D01*
X1258700Y2904000D01*
X1266700Y2910000D01*
X1273300Y2918000D01*
G01X1305900D02*
X1313900Y2908000D01*
X1323200Y2902000D01*
X1335200Y2900000D01*
X1347200Y2904000D01*
X1356500Y2912000D01*
X1363200Y2926000D01*
X1364500Y2942000D01*
X1361900Y2958000D01*
X1355200Y2968000D01*
X1345900Y2976000D01*
X1336500Y2978000D01*
X1327200Y2976000D01*
X1315200Y2968000D01*
X1319200Y3020000D01*
X1355200D01*
G01X1913300Y2100000D02*
Y2220000D01*
X1946700D01*
X1957300Y2214000D01*
X1964000Y2206000D01*
X1966700Y2190000D01*
X1964000Y2174000D01*
X1956000Y2164000D01*
X1946700Y2158000D01*
X1913300D01*
G01X1946700D02*
X1966700Y2100000D01*
G01X2035200D02*
Y2220000D01*
X2019200Y2196000D01*
G01Y2100000D02*
X2051200D01*
G01X2146400D02*
Y2220000D01*
X2097100Y2134000D01*
X2163700D01*
G01X2613300Y2100000D02*
Y2220000D01*
X2646700D01*
X2657300Y2214000D01*
X2664000Y2206000D01*
X2666700Y2190000D01*
X2664000Y2174000D01*
X2656000Y2164000D01*
X2646700Y2158000D01*
X2613300D01*
G01X2646700D02*
X2666700Y2100000D01*
G01X2705900Y2124000D02*
X2713900Y2110000D01*
X2724500Y2102000D01*
X2736500Y2100000D01*
X2747200Y2102000D01*
X2757900Y2112000D01*
X2764500Y2124000D01*
X2765900Y2136000D01*
X2763200Y2150000D01*
X2753900Y2160000D01*
X2744500Y2164000D01*
X2732500D01*
G01X2744500D02*
X2752500Y2170000D01*
X2759200Y2180000D01*
X2761900Y2192000D01*
X2759200Y2204000D01*
X2752500Y2214000D01*
X2740500Y2220000D01*
X2728500Y2218000D01*
X2716500Y2210000D01*
G01X2313300Y2100000D02*
Y2220000D01*
X2346700D01*
X2357300Y2214000D01*
X2364000Y2206000D01*
X2366700Y2190000D01*
X2364000Y2174000D01*
X2356000Y2164000D01*
X2346700Y2158000D01*
X2313300D01*
G01X2346700D02*
X2366700Y2100000D01*
G01X2451200D02*
Y2220000D01*
X2401900Y2134000D01*
X2468500D01*
G01X3269300Y1360000D02*
X3261300Y1366000D01*
X3252000Y1370000D01*
X3241300D01*
X3229300Y1364000D01*
X3220000Y1354000D01*
X3213300Y1342000D01*
X3208000Y1322000D01*
X3206700Y1304000D01*
X3209300Y1286000D01*
X3213300Y1274000D01*
X3221300Y1262000D01*
X3230700Y1254000D01*
X3240000Y1250000D01*
X3249300D01*
X3258700Y1254000D01*
X3266700Y1260000D01*
X3273300Y1268000D01*
G01X3309900Y1350000D02*
X3317900Y1362000D01*
X3327200Y1368000D01*
X3337900Y1370000D01*
X3351200Y1366000D01*
X3360500Y1356000D01*
X3363200Y1344000D01*
X3361900Y1332000D01*
X3356500Y1322000D01*
X3329900Y1302000D01*
X3317900Y1288000D01*
X3309900Y1268000D01*
X3307200Y1250000D01*
X3363200D01*
G01X3269300Y2310000D02*
X3261300Y2316000D01*
X3252000Y2320000D01*
X3241300D01*
X3229300Y2314000D01*
X3220000Y2304000D01*
X3213300Y2292000D01*
X3208000Y2272000D01*
X3206700Y2254000D01*
X3209300Y2236000D01*
X3213300Y2224000D01*
X3221300Y2212000D01*
X3230700Y2204000D01*
X3240000Y2200000D01*
X3249300D01*
X3258700Y2204000D01*
X3266700Y2210000D01*
X3273300Y2218000D01*
G01X3305900Y2224000D02*
X3313900Y2210000D01*
X3324500Y2202000D01*
X3336500Y2200000D01*
X3347200Y2202000D01*
X3357900Y2212000D01*
X3364500Y2224000D01*
X3365900Y2236000D01*
X3363200Y2250000D01*
X3353900Y2260000D01*
X3344500Y2264000D01*
X3332500D01*
G01X3344500D02*
X3352500Y2270000D01*
X3359200Y2280000D01*
X3361900Y2292000D01*
X3359200Y2304000D01*
X3352500Y2314000D01*
X3340500Y2320000D01*
X3328500Y2318000D01*
X3316500Y2310000D01*
G01X2913300Y2100000D02*
Y2220000D01*
X2946700D01*
X2957300Y2214000D01*
X2964000Y2206000D01*
X2966700Y2190000D01*
X2964000Y2174000D01*
X2956000Y2164000D01*
X2946700Y2158000D01*
X2913300D01*
G01X2946700D02*
X2966700Y2100000D01*
G01X3009900Y2200000D02*
X3017900Y2212000D01*
X3027200Y2218000D01*
X3037900Y2220000D01*
X3051200Y2216000D01*
X3060500Y2206000D01*
X3063200Y2194000D01*
X3061900Y2182000D01*
X3056500Y2172000D01*
X3029900Y2152000D01*
X3017900Y2138000D01*
X3009900Y2118000D01*
X3007200Y2100000D01*
X3063200D01*
G01X3269300Y3060000D02*
X3261300Y3066000D01*
X3252000Y3070000D01*
X3241300D01*
X3229300Y3064000D01*
X3220000Y3054000D01*
X3213300Y3042000D01*
X3208000Y3022000D01*
X3206700Y3004000D01*
X3209300Y2986000D01*
X3213300Y2974000D01*
X3221300Y2962000D01*
X3230700Y2954000D01*
X3240000Y2950000D01*
X3249300D01*
X3258700Y2954000D01*
X3266700Y2960000D01*
X3273300Y2968000D01*
G01X3335200Y2950000D02*
Y3070000D01*
X3319200Y3046000D01*
G01Y2950000D02*
X3351200D01*
G01X3430400Y3070000D02*
X3419700Y3066000D01*
X3411700Y3056000D01*
X3406400Y3044000D01*
X3402400Y3028000D01*
X3401100Y3010000D01*
X3402400Y2992000D01*
X3406400Y2976000D01*
X3411700Y2964000D01*
X3419700Y2954000D01*
X3430400Y2950000D01*
X3441100Y2954000D01*
X3449100Y2964000D01*
X3454400Y2976000D01*
X3458400Y2992000D01*
X3459700Y3010000D01*
X3458400Y3028000D01*
X3454400Y3044000D01*
X3449100Y3056000D01*
X3441100Y3066000D01*
X3430400Y3070000D01*
G01X3161300Y3712500D02*
X3168000Y3700500D01*
X3176000Y3692500D01*
X3185300Y3688500D01*
X3196000Y3692500D01*
X3204000Y3700500D01*
X3212000Y3712500D01*
X3214700Y3728500D01*
Y3808500D01*
G01X3283200Y3688500D02*
Y3808500D01*
X3267200Y3784500D01*
G01Y3688500D02*
X3299200D01*
G01X3713300Y1250000D02*
Y1370000D01*
X3746700D01*
X3757300Y1364000D01*
X3764000Y1356000D01*
X3766700Y1340000D01*
X3764000Y1324000D01*
X3756000Y1314000D01*
X3746700Y1308000D01*
X3713300D01*
G01X3746700D02*
X3766700Y1250000D01*
G01X3835200D02*
Y1370000D01*
X3819200Y1346000D01*
G01Y1250000D02*
X3851200D01*
G01X4813300Y774000D02*
X4820000Y762000D01*
X4828000Y754000D01*
X4837300Y750000D01*
X4848000Y754000D01*
X4856000Y762000D01*
X4864000Y774000D01*
X4866700Y790000D01*
Y870000D01*
G01X4909900Y850000D02*
X4917900Y862000D01*
X4927200Y868000D01*
X4937900Y870000D01*
X4951200Y866000D01*
X4960500Y856000D01*
X4963200Y844000D01*
X4961900Y832000D01*
X4956500Y822000D01*
X4929900Y802000D01*
X4917900Y788000D01*
X4909900Y768000D01*
X4907200Y750000D01*
X4963200D01*
G01X4619300Y1210000D02*
X4611300Y1216000D01*
X4602000Y1220000D01*
X4591300D01*
X4579300Y1214000D01*
X4570000Y1204000D01*
X4563300Y1192000D01*
X4558000Y1172000D01*
X4556700Y1154000D01*
X4559300Y1136000D01*
X4563300Y1124000D01*
X4571300Y1112000D01*
X4580700Y1104000D01*
X4590000Y1100000D01*
X4599300D01*
X4608700Y1104000D01*
X4616700Y1110000D01*
X4623300Y1118000D01*
G01X4685200Y1100000D02*
Y1220000D01*
X4669200Y1196000D01*
G01Y1100000D02*
X4701200D01*
G01X4763300Y1500000D02*
Y1620000D01*
X4796700D01*
X4807300Y1614000D01*
X4814000Y1606000D01*
X4816700Y1590000D01*
X4814000Y1574000D01*
X4806000Y1564000D01*
X4796700Y1558000D01*
X4763300D01*
G01X4796700D02*
X4816700Y1500000D01*
G01X4855900Y1518000D02*
X4863900Y1508000D01*
X4873200Y1502000D01*
X4885200Y1500000D01*
X4897200Y1504000D01*
X4906500Y1512000D01*
X4913200Y1526000D01*
X4914500Y1542000D01*
X4911900Y1558000D01*
X4905200Y1568000D01*
X4895900Y1576000D01*
X4886500Y1578000D01*
X4877200Y1576000D01*
X4865200Y1568000D01*
X4869200Y1620000D01*
X4905200D01*
G01X4763300Y1850000D02*
Y1970000D01*
X4796700D01*
X4807300Y1964000D01*
X4814000Y1956000D01*
X4816700Y1940000D01*
X4814000Y1924000D01*
X4806000Y1914000D01*
X4796700Y1908000D01*
X4763300D01*
G01X4796700D02*
X4816700Y1850000D01*
G01X4859900Y1900000D02*
X4869200Y1914000D01*
X4877200Y1922000D01*
X4887900Y1926000D01*
X4897200Y1922000D01*
X4903900Y1914000D01*
X4909200Y1902000D01*
X4910500Y1888000D01*
X4909200Y1876000D01*
X4903900Y1864000D01*
X4895900Y1854000D01*
X4886500Y1850000D01*
X4875900Y1854000D01*
X4866500Y1866000D01*
X4861200Y1884000D01*
X4859900Y1904000D01*
X4862500Y1930000D01*
X4866500Y1944000D01*
X4873200Y1958000D01*
X4882500Y1968000D01*
X4891900Y1970000D01*
X4901200Y1966000D01*
X4907900Y1956000D01*
G01X4763300Y1200000D02*
Y1320000D01*
X4796700D01*
X4807300Y1314000D01*
X4814000Y1306000D01*
X4816700Y1290000D01*
X4814000Y1274000D01*
X4806000Y1264000D01*
X4796700Y1258000D01*
X4763300D01*
G01X4796700D02*
X4816700Y1200000D01*
G01X4885200D02*
X4894500Y1202000D01*
X4905200Y1208000D01*
X4911900Y1218000D01*
X4914500Y1232000D01*
X4911900Y1246000D01*
X4903900Y1258000D01*
X4891900Y1264000D01*
X4878500D01*
X4870500Y1268000D01*
X4863900Y1278000D01*
X4861200Y1292000D01*
X4865200Y1306000D01*
X4874500Y1316000D01*
X4885200Y1320000D01*
X4895900Y1316000D01*
X4905200Y1306000D01*
X4909200Y1292000D01*
X4906500Y1278000D01*
X4899900Y1268000D01*
X4891900Y1264000D01*
X4878500D01*
X4866500Y1258000D01*
X4858500Y1246000D01*
X4855900Y1232000D01*
X4858500Y1218000D01*
X4865200Y1208000D01*
X4875900Y1202000D01*
X4885200Y1200000D01*
G01X4763300Y2150000D02*
Y2270000D01*
X4796700D01*
X4807300Y2264000D01*
X4814000Y2256000D01*
X4816700Y2240000D01*
X4814000Y2224000D01*
X4806000Y2214000D01*
X4796700Y2208000D01*
X4763300D01*
G01X4796700D02*
X4816700Y2150000D01*
G01X4882500D02*
X4885200Y2176000D01*
X4889200Y2198000D01*
X4894500Y2218000D01*
X4901200Y2240000D01*
X4911900Y2270000D01*
X4858500D01*
G01X4860700Y3270000D02*
Y3184000D01*
X4866000Y3166000D01*
X4876700Y3154000D01*
X4890000Y3150000D01*
X4903300Y3154000D01*
X4914000Y3166000D01*
X4919300Y3184000D01*
Y3270000D01*
G01X4985200Y3150000D02*
Y3270000D01*
X4969200Y3246000D01*
G01Y3150000D02*
X5001200D01*
G01X4240000Y2950000D02*
Y3004000D01*
X4213300Y3070000D01*
G01X4266700D02*
X4240000Y3004000D01*
G01X4309900Y3050000D02*
X4317900Y3062000D01*
X4327200Y3068000D01*
X4337900Y3070000D01*
X4351200Y3066000D01*
X4360500Y3056000D01*
X4363200Y3044000D01*
X4361900Y3032000D01*
X4356500Y3022000D01*
X4329900Y3002000D01*
X4317900Y2988000D01*
X4309900Y2968000D01*
X4307200Y2950000D01*
X4363200D01*
G01X6319300Y2560000D02*
X6311300Y2566000D01*
X6302000Y2570000D01*
X6291300D01*
X6279300Y2564000D01*
X6270000Y2554000D01*
X6263300Y2542000D01*
X6258000Y2522000D01*
X6256700Y2504000D01*
X6259300Y2486000D01*
X6263300Y2474000D01*
X6271300Y2462000D01*
X6280700Y2454000D01*
X6290000Y2450000D01*
X6299300D01*
X6308700Y2454000D01*
X6316700Y2460000D01*
X6323300Y2468000D01*
G01X6401200Y2450000D02*
Y2570000D01*
X6351900Y2484000D01*
X6418500D01*
G01X6554100Y846000D02*
X6546100Y852000D01*
X6536800Y856000D01*
X6526100D01*
X6514100Y850000D01*
X6504800Y840000D01*
X6498100Y828000D01*
X6492800Y808000D01*
X6491500Y790000D01*
X6494100Y772000D01*
X6498100Y760000D01*
X6506100Y748000D01*
X6515500Y740000D01*
X6524800Y736000D01*
X6534100D01*
X6543500Y740000D01*
X6551500Y746000D01*
X6558100Y754000D01*
G01X6617300Y736000D02*
X6620000Y762000D01*
X6624000Y784000D01*
X6629300Y804000D01*
X6636000Y826000D01*
X6646700Y856000D01*
X6593300D01*
G01X6774000Y2670000D02*
X6806000D01*
G01X6790000D02*
Y2550000D01*
G01X6774000D02*
X6806000D01*
G01X6914500Y2660000D02*
X6906500Y2666000D01*
X6897200Y2670000D01*
X6886500D01*
X6874500Y2664000D01*
X6865200Y2654000D01*
X6858500Y2642000D01*
X6853200Y2622000D01*
X6851900Y2604000D01*
X6854500Y2586000D01*
X6858500Y2574000D01*
X6866500Y2562000D01*
X6875900Y2554000D01*
X6885200Y2550000D01*
X6894500D01*
X6903900Y2554000D01*
X6911900Y2560000D01*
X6918500Y2568000D01*
G01X6980400Y2550000D02*
Y2670000D01*
X6964400Y2646000D01*
G01Y2550000D02*
X6996400D01*
G01X7887600Y592000D02*
X7879600Y598000D01*
X7870300Y602000D01*
X7859600D01*
X7847600Y596000D01*
X7838300Y586000D01*
X7831600Y574000D01*
X7826300Y554000D01*
X7825000Y536000D01*
X7827600Y518000D01*
X7831600Y506000D01*
X7839600Y494000D01*
X7849000Y486000D01*
X7858300Y482000D01*
X7867600D01*
X7877000Y486000D01*
X7885000Y492000D01*
X7891600Y500000D01*
G01X7953500Y482000D02*
X7962800Y484000D01*
X7973500Y490000D01*
X7980200Y500000D01*
X7982800Y514000D01*
X7980200Y528000D01*
X7972200Y540000D01*
X7960200Y546000D01*
X7946800D01*
X7938800Y550000D01*
X7932200Y560000D01*
X7929500Y574000D01*
X7933500Y588000D01*
X7942800Y598000D01*
X7953500Y602000D01*
X7964200Y598000D01*
X7973500Y588000D01*
X7977500Y574000D01*
X7974800Y560000D01*
X7968200Y550000D01*
X7960200Y546000D01*
X7946800D01*
X7934800Y540000D01*
X7926800Y528000D01*
X7924200Y514000D01*
X7926800Y500000D01*
X7933500Y490000D01*
X7944200Y484000D01*
X7953500Y482000D01*
G01X7290000Y1100000D02*
Y1154000D01*
X7263300Y1220000D01*
G01X7316700D02*
X7290000Y1154000D01*
G01X7385200Y1100000D02*
Y1220000D01*
X7369200Y1196000D01*
G01Y1100000D02*
X7401200D01*
G01X7563300Y3600000D02*
Y3720000D01*
X7596700D01*
X7607300Y3714000D01*
X7614000Y3706000D01*
X7616700Y3690000D01*
X7614000Y3674000D01*
X7606000Y3664000D01*
X7596700Y3658000D01*
X7563300D01*
G01X7596700D02*
X7616700Y3600000D01*
G01X7662500Y3614000D02*
X7671900Y3604000D01*
X7682500Y3600000D01*
X7693200Y3604000D01*
X7702500Y3616000D01*
X7709200Y3634000D01*
X7711900Y3652000D01*
Y3674000D01*
X7709200Y3692000D01*
X7702500Y3708000D01*
X7694500Y3716000D01*
X7685200Y3720000D01*
X7674500Y3716000D01*
X7666500Y3708000D01*
X7661200Y3696000D01*
X7658500Y3680000D01*
X7661200Y3666000D01*
X7667900Y3652000D01*
X7675900Y3644000D01*
X7685200Y3642000D01*
X7695900Y3646000D01*
X7703900Y3656000D01*
X7711900Y3674000D01*
G01X8663300Y1350000D02*
Y1470000D01*
X8696700D01*
X8707300Y1464000D01*
X8714000Y1456000D01*
X8716700Y1440000D01*
X8714000Y1424000D01*
X8706000Y1414000D01*
X8696700Y1408000D01*
X8663300D01*
G01X8696700D02*
X8716700Y1350000D01*
G01X8785200D02*
Y1470000D01*
X8769200Y1446000D01*
G01Y1350000D02*
X8801200D01*
G01X8851100Y1374000D02*
X8859100Y1360000D01*
X8869700Y1352000D01*
X8881700Y1350000D01*
X8892400Y1352000D01*
X8903100Y1362000D01*
X8909700Y1374000D01*
X8911100Y1386000D01*
X8908400Y1400000D01*
X8899100Y1410000D01*
X8889700Y1414000D01*
X8877700D01*
G01X8889700D02*
X8897700Y1420000D01*
X8904400Y1430000D01*
X8907100Y1442000D01*
X8904400Y1454000D01*
X8897700Y1464000D01*
X8885700Y1470000D01*
X8873700Y1468000D01*
X8861700Y1460000D01*
G01X8313300Y1350000D02*
Y1470000D01*
X8346700D01*
X8357300Y1464000D01*
X8364000Y1456000D01*
X8366700Y1440000D01*
X8364000Y1424000D01*
X8356000Y1414000D01*
X8346700Y1408000D01*
X8313300D01*
G01X8346700D02*
X8366700Y1350000D01*
G01X8435200D02*
Y1470000D01*
X8419200Y1446000D01*
G01Y1350000D02*
X8451200D01*
G01X8501100Y1368000D02*
X8509100Y1358000D01*
X8518400Y1352000D01*
X8530400Y1350000D01*
X8542400Y1354000D01*
X8551700Y1362000D01*
X8558400Y1376000D01*
X8559700Y1392000D01*
X8557100Y1408000D01*
X8550400Y1418000D01*
X8541100Y1426000D01*
X8531700Y1428000D01*
X8522400Y1426000D01*
X8510400Y1418000D01*
X8514400Y1470000D01*
X8550400D01*
G01X9313300Y1350000D02*
Y1470000D01*
X9346700D01*
X9357300Y1464000D01*
X9364000Y1456000D01*
X9366700Y1440000D01*
X9364000Y1424000D01*
X9356000Y1414000D01*
X9346700Y1408000D01*
X9313300D01*
G01X9346700D02*
X9366700Y1350000D01*
G01X9435200D02*
Y1470000D01*
X9419200Y1446000D01*
G01Y1350000D02*
X9451200D01*
G01X9530400D02*
Y1470000D01*
X9514400Y1446000D01*
G01Y1350000D02*
X9546400D01*
G01X8963300D02*
Y1470000D01*
X8996700D01*
X9007300Y1464000D01*
X9014000Y1456000D01*
X9016700Y1440000D01*
X9014000Y1424000D01*
X9006000Y1414000D01*
X8996700Y1408000D01*
X8963300D01*
G01X8996700D02*
X9016700Y1350000D01*
G01X9085200D02*
Y1470000D01*
X9069200Y1446000D01*
G01Y1350000D02*
X9101200D01*
G01X9155100Y1450000D02*
X9163100Y1462000D01*
X9172400Y1468000D01*
X9183100Y1470000D01*
X9196400Y1466000D01*
X9205700Y1456000D01*
X9208400Y1444000D01*
X9207100Y1432000D01*
X9201700Y1422000D01*
X9175100Y1402000D01*
X9163100Y1388000D01*
X9155100Y1368000D01*
X9152400Y1350000D01*
X9208400D01*
G01X9260700Y2900000D02*
Y3020000D01*
X9287300D01*
X9298000Y3014000D01*
X9306000Y3006000D01*
X9312700Y2994000D01*
X9318000Y2980000D01*
X9319300Y2960000D01*
X9318000Y2940000D01*
X9312700Y2926000D01*
X9306000Y2914000D01*
X9298000Y2906000D01*
X9287300Y2900000D01*
X9260700D01*
G01X9385200D02*
Y3020000D01*
X9369200Y2996000D01*
G01Y2900000D02*
X9401200D01*
G01X9363300Y3450000D02*
Y3570000D01*
X9396700D01*
X9407300Y3564000D01*
X9414000Y3556000D01*
X9416700Y3540000D01*
X9414000Y3524000D01*
X9406000Y3514000D01*
X9396700Y3508000D01*
X9363300D01*
G01X9396700D02*
X9416700Y3450000D01*
G01X9485200D02*
Y3570000D01*
X9469200Y3546000D01*
G01Y3450000D02*
X9501200D01*
G01X9580400Y3570000D02*
X9569700Y3566000D01*
X9561700Y3556000D01*
X9556400Y3544000D01*
X9552400Y3528000D01*
X9551100Y3510000D01*
X9552400Y3492000D01*
X9556400Y3476000D01*
X9561700Y3464000D01*
X9569700Y3454000D01*
X9580400Y3450000D01*
X9591100Y3454000D01*
X9599100Y3464000D01*
X9604400Y3476000D01*
X9608400Y3492000D01*
X9609700Y3510000D01*
X9608400Y3528000D01*
X9604400Y3544000D01*
X9599100Y3556000D01*
X9591100Y3566000D01*
X9580400Y3570000D01*
G01X9956600Y2333200D02*
X9963300Y2321200D01*
X9971300Y2313200D01*
X9980600Y2309200D01*
X9991300Y2313200D01*
X9999300Y2321200D01*
X10007300Y2333200D01*
X10010000Y2349200D01*
Y2429200D01*
G01X10094500Y2309200D02*
Y2429200D01*
X10045200Y2343200D01*
X10111800D01*
G01X10279100Y2607700D02*
X10285800Y2595700D01*
X10293800Y2587700D01*
X10303100Y2583700D01*
X10313800Y2587700D01*
X10321800Y2595700D01*
X10329800Y2607700D01*
X10332500Y2623700D01*
Y2703700D01*
G01X10371700Y2607700D02*
X10379700Y2593700D01*
X10390300Y2585700D01*
X10402300Y2583700D01*
X10413000Y2585700D01*
X10423700Y2595700D01*
X10430300Y2607700D01*
X10431700Y2619700D01*
X10429000Y2633700D01*
X10419700Y2643700D01*
X10410300Y2647700D01*
X10398300D01*
G01X10410300D02*
X10418300Y2653700D01*
X10425000Y2663700D01*
X10427700Y2675700D01*
X10425000Y2687700D01*
X10418300Y2697700D01*
X10406300Y2703700D01*
X10394300Y2701700D01*
X10382300Y2693700D01*
G54D11*
G01X889000Y2063700D02*
G03X603300Y1778000I0J-285700D01*
G01D02*
G03X889000Y1492300I285700J0D01*
G01D02*
G03X1174700Y1778000I0J285700D01*
G01D02*
G03X889000Y2063700I-285700J0D01*
G01Y2762200D02*
G03X603300Y2476500I0J-285700D01*
G01D02*
G03X889000Y2190800I285700J0D01*
G01D02*
G03X1174700Y2476500I0J285700D01*
G01Y3175000D02*
G03X889000Y3460700I-285700J0D01*
G01D02*
G03X603300Y3175000I0J-285700D01*
G01D02*
G03X889000Y2889300I285700J0D01*
G01D02*
G03X1174700Y3175000I0J285700D01*
G01Y2476500D02*
G03X889000Y2762200I-285700J0D01*
G01X2159000Y3175000D02*
Y2540000D01*
G01X1905000D02*
Y3175000D01*
G01X2032000Y2540000D02*
X1905000D01*
G01X2159000D02*
X2032000D01*
G01D02*
Y2476500D01*
G01X2540000Y2540000D02*
Y3175000D01*
G01X2667000Y2540000D02*
X2540000D01*
G01X2476500Y3175000D02*
Y2540000D01*
G01X2222500D02*
Y3175000D01*
G01X2349500Y2540000D02*
X2222500D01*
G01X2476500D02*
X2349500D01*
G01D02*
Y2476500D01*
G01X2032000Y3175000D02*
X2159000D01*
G01X1905000D02*
X2032000D01*
G01D02*
Y3238500D01*
G01X2540000Y3175000D02*
X2667000D01*
G01X2349500D02*
X2476500D01*
G01X2222500D02*
X2349500D01*
G01D02*
Y3238500D01*
G01X3492500Y1174700D02*
G03X3206800Y889000I0J-285700D01*
G01D02*
G03X3492500Y603300I285700J0D01*
G01X3333800Y1968500D02*
G03X3619500Y1682800I285700J0D01*
G01Y2889200D02*
G03X3333800Y2603500I0J-285700D01*
G01D02*
G03X3619500Y2317800I285700J0D01*
G01Y2254200D02*
G03X3333800Y1968500I0J-285700D01*
G01X3111500Y3175000D02*
Y2540000D01*
G01X2857500D02*
Y3175000D01*
G01X2984500Y2540000D02*
X2857500D01*
G01X3111500D02*
X2984500D01*
G01D02*
Y2476500D01*
G01X2794000Y3175000D02*
Y2540000D01*
G01D02*
X2667000D01*
G01D02*
Y2476500D01*
G01X2984500Y3175000D02*
X3111500D01*
G01X2857500D02*
X2984500D01*
G01D02*
Y3238500D01*
G01X2667000Y3175000D02*
X2794000D01*
G01X2667000D02*
Y3238500D01*
G01X3778200Y889000D02*
G03X3492500Y1174700I-285700J0D01*
G01Y603300D02*
G03X3778200Y889000I0J285700D01*
G01X4191000Y1238200D02*
G03X3905300Y952500I0J-285700D01*
G01D02*
G03X4191000Y666800I285700J0D01*
G01X3619500Y1682800D02*
G03X3905200Y1968500I0J285700D01*
G01X3619500Y1651000D02*
X4254500D01*
G01X3619500Y1524000D02*
Y1651000D01*
G01Y1397000D02*
Y1524000D01*
G01X4254500Y1397000D02*
X3619500D01*
G01Y1524000D02*
X3556000D01*
G01X4064000Y1714500D02*
Y2857500D01*
G01X4572000Y1714500D02*
X4064000D01*
G01X3905200Y2603500D02*
G03X3619500Y2889200I-285700J0D01*
G01Y2317800D02*
G03X3905200Y2603500I0J285700D01*
G01Y1968500D02*
G03X3619500Y2254200I-285700J0D01*
G01X4064000Y2857500D02*
X4572000D01*
G01X4318000Y3683000D02*
X4064000D01*
G01D02*
X3810000D01*
G01D02*
X3556000D01*
G01D02*
X3416300D01*
G01D02*
Y3937000D01*
G01D02*
X4711700D01*
G01X4476700Y952500D02*
G03X4191000Y1238200I-285700J0D01*
G01Y666800D02*
G03X4476700Y952500I0J285700D01*
G01X4254500Y1524000D02*
Y1397000D01*
G01Y1651000D02*
Y1524000D01*
G01D02*
X4318000D01*
G01X4572000Y2857500D02*
Y1714500D01*
G01X4711700Y3683000D02*
X4572000D01*
G01D02*
X4318000D01*
G01X4711700Y3937000D02*
Y3683000D01*
G01X5905500Y1460500D02*
X5270500D01*
G01Y1714500D02*
X5905500D01*
G01X5270500Y1587500D02*
Y1714500D01*
G01Y1460500D02*
Y1587500D01*
G01D02*
X5207000D01*
G01X5905500Y1778000D02*
X5270500D01*
G01D02*
Y1905000D01*
G01X5905500Y1143000D02*
X5270500D01*
G01Y1397000D02*
X5905500D01*
G01X5270500Y1270000D02*
Y1397000D01*
G01Y1143000D02*
Y1270000D01*
G01D02*
X5207000D01*
G01X5270500Y2032000D02*
X5905500D01*
G01X5270500Y1905000D02*
Y2032000D01*
G01Y1905000D02*
X5207000D01*
G01X5905500Y2095500D02*
X5270500D01*
G01Y2349500D02*
X5905500D01*
G01X5270500Y2222500D02*
Y2349500D01*
G01Y2095500D02*
Y2222500D01*
G01D02*
X5207000D01*
G01X6254800Y1206500D02*
G03X6540500Y920800I285700J0D01*
G01Y1492200D02*
G03X6254800Y1206500I0J-285700D01*
G01X5905500Y1587500D02*
Y1460500D01*
G01Y1714500D02*
Y1587500D01*
G01D02*
X5969000D01*
G01X5905500Y1905000D02*
Y1778000D01*
G01Y1270000D02*
Y1143000D01*
G01Y1397000D02*
Y1270000D01*
G01D02*
X5969000D01*
G01X6667500Y2444700D02*
G03X6381800Y2159000I0J-285700D01*
G01D02*
G03X6667500Y1873300I285700J0D01*
G01X5905500Y2032000D02*
Y1905000D01*
G01D02*
X5969000D01*
G01X5905500Y2222500D02*
Y2095500D01*
G01Y2349500D02*
Y2222500D01*
G01D02*
X5969000D01*
G01X6540500Y920800D02*
G03X6826200Y1206500I0J285700D01*
G01D02*
G03X6540500Y1492200I-285700J0D01*
G01X6985000Y1333500D02*
Y1841500D01*
G01X8128000Y1333500D02*
X6985000D01*
G01Y1841500D02*
X8128000D01*
G01X6953200Y2159000D02*
G03X6667500Y2444700I-285700J0D01*
G01Y1873300D02*
G03X6953200Y2159000I0J285700D01*
G01X7874000Y1238200D02*
G03X7588300Y952500I0J-285700D01*
G01D02*
G03X7874000Y666800I285700J0D01*
G01D02*
G03X8159700Y952500I0J285700D01*
G01D02*
G03X7874000Y1238200I-285700J0D01*
G01X7937500Y3238500D02*
X7302500D01*
G01X7937500Y3365500D02*
Y3238500D01*
G01Y3492500D02*
Y3365500D01*
G01X7302500D02*
Y3492500D01*
G01Y3238500D02*
Y3365500D01*
G01X7937500D02*
X8001000D01*
G01X7302500D02*
X7239000D01*
G01X7302500Y3492500D02*
X7937500D01*
G01X8636000Y1841500D02*
Y2476500D01*
G01X8763000Y1841500D02*
X8636000D01*
G01X8572500Y2476500D02*
Y1841500D01*
G01X8318500D02*
Y2476500D01*
G01X8445500Y1841500D02*
X8318500D01*
G01X8572500D02*
X8445500D01*
G01D02*
Y1778000D01*
G01X8128000Y1841500D02*
Y1333500D01*
G01X8636000Y2476500D02*
X8763000D01*
G01X8445500D02*
X8572500D01*
G01X8318500D02*
X8445500D01*
G01D02*
Y2540000D01*
G01X8858300Y3492500D02*
G03Y2857500I0J-317500D01*
G01X8572500Y3873500D02*
X9207500D01*
G01X8572500Y3746500D02*
Y3873500D01*
G01Y3619500D02*
Y3746500D01*
G01X9207500Y3619500D02*
X8572500D01*
G01Y3746500D02*
X8509000D01*
G01X9271000Y1841500D02*
Y2476500D01*
G01X9398000Y1841500D02*
X9271000D01*
G01X9525000D02*
X9398000D01*
G01D02*
Y1778000D01*
G01X8890000Y2476500D02*
Y1841500D01*
G01D02*
X8763000D01*
G01D02*
Y1778000D01*
G01X9207500Y2476500D02*
Y1841500D01*
G01X8953500D02*
Y2476500D01*
G01X9080500Y1841500D02*
X8953500D01*
G01X9207500D02*
X9080500D01*
G01D02*
Y1778000D01*
G01X9398000Y2476500D02*
X9525000D01*
G01X9271000D02*
X9398000D01*
G01D02*
Y2540000D01*
G01X8763000Y2476500D02*
X8890000D01*
G01X8763000D02*
Y2540000D01*
G01X9080500Y2476500D02*
X9207500D01*
G01X8953500D02*
X9080500D01*
G01D02*
Y2540000D01*
G01X8858300Y2857500D02*
G03X9175700Y3175000I0J317400D01*
G01D02*
G03X8858300Y3492500I-317400J100D01*
G01X9207500Y3746500D02*
Y3619500D01*
G01Y3873500D02*
Y3746500D01*
G01D02*
X9271000D01*
G01X9969500Y939800D02*
Y1079500D01*
G01D02*
Y1333500D01*
G01X10223500Y2235200D02*
Y939800D01*
G01D02*
X9969500D01*
G01Y1333500D02*
Y1587500D01*
G01D02*
Y1841500D01*
G01D02*
Y2095500D01*
G01X9525000Y2476500D02*
Y1841500D01*
G01X9969500Y2095500D02*
Y2235200D01*
G01D02*
X10223500D01*
G01X10604500Y3429000D02*
Y3175000D01*
G01D02*
Y2921000D01*
G01D02*
Y2781300D01*
G01D02*
X10350500D01*
G01D02*
Y4076700D01*
G01X10604500D02*
Y3937000D01*
G01D02*
Y3683000D01*
G01D02*
Y3429000D01*
G01X10350500Y4076700D02*
X10604500D01*
G54D12*
G01X5264700Y2536200D02*
Y2678900D01*
G01X7108200Y2990300D02*
X7250900D01*
M02*
