G04 ================== begin FILE IDENTIFICATION RECORD ==================*
G04 Layout Name:  asdfasdf.brd*
G04 Film Name:    SoldermaskTop*
G04 File Format:  Gerber RS274X*
G04 File Origin:  Cadence Allegro 16.6-S034*
G04 Origin Date:  Fri Jul 19 12:46:19 2019*
G04 *
G04 Layer:  VIA CLASS/SOLDERMASK_TOP*
G04 Layer:  PIN/SOLDERMASK_TOP*
G04 Layer:  PACKAGE GEOMETRY/SOLDERMASK_TOP*
G04 Layer:  BOARD GEOMETRY/SOLDERMASK_TOP*
G04 *
G04 Offset:    (0.000 0.000)*
G04 Mirror:    No*
G04 Mode:      Positive*
G04 Rotation:  0*
G04 FullContactRelief:  No*
G04 UndefLineWidth:     0.000*
G04 ================== end FILE IDENTIFICATION RECORD ====================*
%FSLAX25Y25*MOMM*%
%IR0*IPPOS*OFA0.00000B0.00000*MIA0B0*SFA1.00000B1.00000*%
%ADD15R,.4X1.72*%
%ADD11C,1.321*%
%ADD21C,1.118*%
%ADD10R,1.321X1.321*%
%ADD12C,1.575*%
%ADD13R,1.575X1.575*%
%ADD18O,.457X1.778*%
%ADD19O,1.778X.457*%
%ADD17R,.457X1.778*%
%ADD20R,1.778X.457*%
%ADD16O,1.2X1.9*%
%ADD14R,1.1X1.72*%
%LPD*%
G75*
G54D10*
X1016000Y1778000D03*
Y2476500D03*
Y3175000D03*
X3365500Y889000D03*
X4064000Y952500D03*
X3492500Y2603500D03*
Y1968500D03*
X6667500Y1206500D03*
X6540500Y2159000D03*
X8001000Y952500D03*
X9017000Y3175000D03*
G54D20*
X5189200Y2908300D03*
X6038800Y2828300D03*
X7175500Y2921000D03*
X8025100Y2601000D03*
G54D11*
X762000Y1778000D03*
Y2476500D03*
Y3175000D03*
X2032000Y2349500D03*
X2667000D03*
X2349500D03*
X2032000Y3365500D03*
X2667000D03*
X2349500D03*
X3429000Y1524000D03*
X2984500Y2349500D03*
Y3365500D03*
X3619500Y889000D03*
X3746500Y2603500D03*
Y1968500D03*
X4318000Y952500D03*
X4445000Y1524000D03*
X4318000Y1905000D03*
Y2667000D03*
X5080000Y1587500D03*
Y1905000D03*
Y1270000D03*
Y2222500D03*
X6413500Y1206500D03*
X6096000Y1587500D03*
Y1905000D03*
Y1270000D03*
Y2222500D03*
X7175500Y1587500D03*
X6794500Y2159000D03*
X7112000Y3365500D03*
X7747000Y952500D03*
X7937500Y1587500D03*
X8763000Y1651000D03*
X8445500D03*
X8763000Y2667000D03*
X8445500D03*
X8699500Y3175000D03*
X8128000Y3365500D03*
X8382000Y3746500D03*
X9398000Y1651000D03*
X9080500D03*
X9398000Y2667000D03*
X9080500D03*
X9398000Y3746500D03*
G54D12*
X4064000Y3810000D03*
X3810000D03*
X4572000D03*
X4318000D03*
X10096500Y1079500D03*
Y1333500D03*
Y1587500D03*
Y1841500D03*
X10477500Y3429000D03*
Y3175000D03*
Y3937000D03*
Y3683000D03*
G54D21*
X5397500Y3619500D03*
X5524500Y3683000D03*
X5588000Y3746500D03*
X5651500Y3810000D03*
X5778500Y2413000D03*
X6238300Y3863300D03*
X6985000Y2794000D03*
Y3238500D03*
X6687800Y3068300D03*
G54D13*
X3556000Y3810000D03*
X10096500Y2095500D03*
X10477500Y2921000D03*
G54D14*
X5360500Y814500D03*
X5815500D03*
G54D15*
X5458000D03*
X5523000D03*
X5653000D03*
X5588000D03*
X5718000D03*
G54D16*
X5075500D03*
Y444500D03*
X6100500Y814500D03*
Y444500D03*
G54D17*
X5334000Y2603500D03*
X5654000Y3453100D03*
X7400300Y2216200D03*
X7480300Y3065800D03*
G54D18*
X5414000Y2603500D03*
X5494000D03*
X5574000D03*
X5654000D03*
X5574000Y3453100D03*
X5494000D03*
X5414000D03*
X5334000D03*
X5734000Y2603500D03*
X5814100D03*
X5894100D03*
Y3453100D03*
X5814100D03*
X5734000D03*
X7320300Y2216200D03*
X7480300D03*
X7560300D03*
X7640300D03*
X7720300D03*
X7800300D03*
X7880300D03*
Y3065800D03*
X7800300D03*
X7720300D03*
X7640300D03*
X7560300D03*
X7400300D03*
X7320300D03*
G54D19*
X5189200Y3308300D03*
Y3228300D03*
Y3148300D03*
Y3068300D03*
Y2988300D03*
Y2828300D03*
Y2748300D03*
X6038800D03*
Y2908300D03*
Y2988300D03*
Y3068300D03*
Y3148300D03*
Y3228300D03*
Y3308300D03*
X7175500Y2601000D03*
Y2521000D03*
Y2440900D03*
Y2360900D03*
Y2841000D03*
Y2761000D03*
Y2681000D03*
X8025100Y2360900D03*
Y2440900D03*
Y2521000D03*
Y2681000D03*
Y2761000D03*
Y2841000D03*
Y2921000D03*
M02*
